<svg width="80" height="100%" viewBox="0 0 80 58" fill="none" xmlns="http://www.w3.org/2000/svg" style="max-width:100%">
  <g filter="url(#filter0_d_7_232)" style="" fill="#F7D648">
    <path fill-rule="evenodd" clip-rule="evenodd" d="M47.5419 6.13107L47.1643 6L47.0597 6.00619L47.0524 6.18784L46.931 6.161L46.6999 6.39838L46.6706 6.26111L46.4394 6.5728L46.1287 6.72554L46.045 6.56557L45.884 6.53874L45.8086 6.64504L45.5963 6.60582L45.4028 6.708L44.8662 6.27659L44.6476 6.34265L44.2229 6.2157L44.1779 6.34368L44.3275 6.71522L44.1455 6.74206L44.0702 6.86694L44.1517 7.04239L44.0775 7.25912L44.2208 7.29112L43.8181 7.62138L43.4436 7.72355L43.2543 7.9279L42.8181 7.82057L42.6204 7.86908L42.772 7.68433L42.4499 7.49959L42.271 7.56668L42.1465 7.48308L41.9363 7.58113L41.7605 7.47276L41.0388 7.44696L40.976 7.32311L40.7156 7.36852L40.7428 7.43767L40.5262 7.52746L40.43 7.82573L40.2783 7.88352L39.8787 7.54501L39.3306 7.6833L39.2009 7.61725L39.0733 8.00015L39.135 8.15393L39.0283 8.09716L38.9833 8.29635L38.703 8.41401L38.7553 8.56882L38.6758 8.69989L38.4833 8.67615L38.3003 9.0477L38.1465 9.11478L38.1633 9.39963L38.0126 9.43369L38.1382 9.47807L38.0492 9.73712L37.8369 9.7815L37.8599 10.0292L37.6695 9.98688L37.7333 10.0581L37.6392 10.2253L37.8087 10.3409L37.6434 10.3914L37.8013 10.4905L37.7114 10.5813L37.7773 10.7031L37.8997 10.6732L37.8526 10.8745L38.0409 11.1232L37.8955 11.2119L37.9112 11.3358L38.0273 11.3461L38.1549 11.6083L38.1403 11.8322L37.9384 11.9736L38.0419 12.019L38.0105 12.1305L37.7462 12.2614L37.6323 12.1573L37.4429 12.1996L37.4743 12.0139L37.2651 11.9984L37.0172 11.7517L37.0779 11.3647L36.4524 10.8755L36.4084 10.9993L36.284 10.8972L36.2547 11.0055L35.8906 10.9137L35.7128 11.0994L35.4639 11.0251L35.4022 11.2429L35.1417 11.1634L35.1009 11.2625L34.9294 11.1738L34.9262 10.8538L34.8268 10.7723L34.6595 10.924L34.5319 10.9126L34.3551 11.1469L34.2013 11.0489L34.0664 11.504L33.7473 11.4287L33.5643 11.5773L33.6898 11.6093L33.6899 11.6113L33.5645 11.5783L33.4274 11.6134L33.3678 11.1903L33.2391 11.15L33.1659 10.9591L33.1868 10.5638L33.0383 10.5287L32.8804 10.0808L32.6712 10.0901L32.2873 10.5215L31.9672 10.441L31.6701 10.5989L31.4504 11.0076L31.5216 11.2026L31.4191 11.407L31.3647 11.1221L31.1743 11.2274L31.0697 10.5948L30.9912 10.5958L31.0875 10.5504L30.7276 10.5401L30.4233 10.4121L30.0163 10.7155L29.9797 10.5184L29.759 10.2439L29.6701 10.2562L29.6712 9.91359L29.371 10.1148L29.1105 10.5008L28.5467 10.6092L28.6743 10.41L28.4735 10.5008L28.4484 10.2841L28.2318 10.2057L28.1199 10.2831L28.2214 10.7L28.0467 10.7599L27.9065 11.0747L27.5647 10.8457L27.5647 10.8456L27.7624 10.5793L27.7739 10.3564L27.4151 10.3512L27.049 10.1757L26.9998 10.4503L26.8178 10.2614L26.7247 10.3522L26.4946 10.2821L26.0804 10.3626L26.185 10.0746L25.9549 10.0189L25.9308 9.40479L25.1902 9.43369L25.027 9.6205L24.6735 9.44814L24.4852 9.49871L24.3398 9.38518L24.3293 9.2376L24.118 9.11478L23.7697 9.09208L23.594 9.26856L23.3419 9.25927L23.0783 9.05802L23.0678 8.82993L22.345 8.90321L21.7059 8.50689L21.4413 8.60804L21.071 8.55437L21.0511 8.44703L20.8963 8.40678L20.8984 8.56469L20.2284 8.54922L20.0118 8.46665L19.9491 8.5678L19.5945 8.57915L19.061 8.30875L18.9386 8.35209L18.4721 8.40163L18.0087 8.70919L17.8445 8.62869L17.5798 8.70816L17.5118 8.61837L17.2754 8.78453L16.8204 8.67616L15.9595 8.78969L15.7869 8.9156L15.6353 9.24174L15.7158 9.53691L15.0223 10.0044L14.5809 10.4833L14.1729 10.4245L14.2807 10.1964L13.857 10.1541L13.8162 9.99927L13.4512 10.0736L13.2012 10.2397L13.401 10.4761L13.3068 10.6453L13.447 10.9034L13.2388 10.8693L13.2462 10.9529L13.4229 11.0324L13.3518 11.2367L13.539 11.3884L13.4763 11.6702L13.3089 11.8683L13.3403 12.0975H13.5213L13.6729 12.532L14.1353 12.8818L14.0913 13.1657L14.2754 13.3091L14.3643 13.6373L14.288 13.658L14.4418 13.7735L14.4909 13.9882L14.7849 14.3164L15.1133 14.4444L14.9721 14.6044L14.6091 14.5951L14.4616 14.7458L14.4836 14.9604L14.6792 15.012L14.6593 15.2432L14.8507 15.2639L14.8215 15.4909L14.9072 15.5838L14.9066 15.5838L14.892 16.2443L14.5855 16.9585L13.62 17.0927L13.4767 17.3982L12.0416 18.6387L9.7832 21.7308L9.98509 21.9258L10.1577 22.6318L10.1347 23.2407L10.0468 23.3315L10.1598 23.4131L10.0207 23.6277L10.0614 23.6835L10.1912 23.5875L10.1326 23.7144L10.3104 23.7196L10.4527 23.9642L10.665 24.0457L10.5782 24.2047L10.6347 24.3522L10.635 24.3524L10.6663 24.5153L10.5136 24.5463L10.2406 24.2759L9.841 24.3017L9.73012 24.1334L9.54079 24.0684L9.4456 24.5256L9.20711 24.602L9.01569 24.9364L9.00104 25.1676L8.86611 25.2997L8.88284 25.6196L8.73745 25.8219L8.79393 25.9726L8.71548 26.2327L8.159 26.6599L8 27.5393L8.02406 27.7137L8.24268 27.5919L8.44561 27.6786L8.36088 27.8076L8.63494 27.9779L8.61506 28.1193L8.85565 28.5858L8.92678 28.5104L9.28347 28.5187L9.52824 28.7901L9.60042 29.2535L9.88389 29.3402L10.1182 29.1926L10.4351 29.2102L10.6318 29.5435L10.4728 29.8759L10.6872 30.0534L10.8713 29.9956L10.8002 29.7231L11.1077 29.8728L11.3787 29.7902L11.4561 29.3639L11.6433 29.1937L11.7312 29.3113L11.9958 29.301L12.0439 29.5353L12.2406 29.624L12.228 29.7159L12.8054 29.9894L12.9257 29.719L13.4121 29.9037L13.8086 29.849L14.1171 30.1721L14.6224 29.9925L14.9874 30.2629L15.272 30.2464L15.4006 30.3547L15.7406 30.203L15.8284 30.2618L16.1318 29.9749L16.3985 30.074L16.592 29.9853L16.6339 29.7128L16.8107 29.5621L16.3734 28.9893L16.5272 28.6766L16.5273 28.6766L16.3735 28.9893L16.8107 29.5621L16.634 29.7128L16.5921 29.9853L16.8128 30.0813L17.089 30.6458L17.522 30.7552L17.7197 31.2516L17.8557 31.2351L18.273 31.2434L18.3274 31.1319L18.546 31.0906L18.9529 30.3785L19.2426 30.2629L20.4246 30.0802L20.8755 30.1359L21.1788 29.977L22.3284 29.847L22.4309 29.5487L22.6474 29.3887L22.8535 28.8603L23.2227 28.8066L23.3357 28.6725L23.6976 28.6735L23.7499 28.5342L23.8702 28.5682L23.8692 28.3876L24.1443 28.1069L24.0993 27.9645L24.2981 28.1843L24.5564 28.2844L24.5826 28.0223L24.3807 27.9686L24.2468 27.6776L24.3451 27.7354L24.433 27.6322L24.7782 27.627L24.9529 27.916L25.1893 27.9469L25.2217 27.8334L25.3849 27.8282L25.2688 27.6084L25.5052 27.5465L25.7029 27.8644L25.8974 27.7612L26.2165 27.8768L26.3451 27.5031L26.5114 27.5042L26.5847 27.6703L26.7876 27.6693L26.8828 27.4536L27.1004 27.3607L26.9089 27.1636L26.8148 26.6806L26.5334 26.5196L26.3483 26.6816L26.3477 26.6814L26.5326 26.5196L26.6822 26.1666L26.5901 25.8002L26.7272 25.6444L26.6016 25.0602L26.6905 24.7165L26.564 24.5153L26.768 24.1933L26.9845 24.184L26.9625 23.9095L26.9641 23.9095L26.9861 24.184L26.7695 24.1933L26.5656 24.5153L26.6921 24.7165L26.6032 25.0602L26.7287 25.6444L26.5917 25.8002L26.6838 26.1666L26.5342 26.5196L26.8156 26.6806L26.9097 27.1636L27.1011 27.3607L27.3239 27.2451L27.3051 27.403L27.484 27.5042L27.9923 27.4825L28.2988 27.7034L28.3825 27.9335L28.5823 28.0955L29.0352 28.1771L29.0792 28.6023L29.3386 28.4619L29.4892 28.754L30.007 28.5331L30.0603 28.7664L29.8448 29.0936L30.0028 29.1101L30.1105 28.9119L30.2748 28.9233L30.2507 29.1813L30.4034 29.4362L30.5279 29.4754L30.5425 29.0306L30.7633 28.9037L31.1681 29.0564L31.2015 29.1606L31.734 29.1658L31.758 29.3949L31.7603 29.3968L31.7273 29.6374L32.0254 30.0286L32.1771 29.9233L32.5296 30.1173L32.5798 29.976L32.6499 30.0245L32.628 29.913L32.9208 29.8562L33.016 30.4156L33.2828 30.3857L33.0108 30.7159L33.083 30.8749L33.2702 30.8388L33.0296 31.2671L33.1165 31.458L33.0307 31.6789L33.1227 31.6747L32.9491 32.0308L32.7043 32.1206L32.8361 32.36L32.969 32.3342L32.9648 32.5324L32.8612 32.6191L32.9794 32.5716L32.9742 32.7966L33.1572 32.6108L33.175 32.843L33.424 32.6758L33.4941 33.0711L33.6792 33.0206L33.7095 33.4282L33.8215 33.486L34.0108 33.3993L34.0234 33.1516L34.3288 33.0701L34.4208 33.6501L34.2545 33.6924L34.3581 34.2745L34.0558 34.3488L34.1824 34.5986L34.2367 34.4892L34.469 34.4696L34.5213 34.7451L34.4334 34.7823L34.4135 35.1642L34.2754 35.19L34.3298 35.2746L34.5631 35.2096L34.5966 35.3768L34.8518 35.3314L34.9637 35.6874L35.4271 35.5584L35.5035 35.8897L35.7242 35.8267L35.7587 35.9083L35.6123 35.963L35.7462 36.2354L35.6593 37.2159L35.3978 37.2799L35.6185 37.542L35.7943 37.4667L35.8026 37.6205L35.9187 37.67L35.8183 37.7165L35.9219 37.8073L36.0662 37.8052L36.1133 37.9002L36.1771 37.8176L36.3121 37.9662L36.3916 37.8723L36.4083 37.9559L36.1646 38.1159L36.0516 38.024L35.787 38.1076L35.6144 38.0137L35.4303 38.1582L35.4355 38.2604L35.1635 38.0973L35.2137 38.0385L34.9208 37.6618L34.8989 37.8548L34.6426 37.8475L34.6865 38.217L34.4397 38.2521L34.3455 38.2191L34.289 37.9384L34.0014 37.8238L34.0819 37.7247L33.8999 37.5441L33.6729 37.7866L33.7043 37.896L33.5307 37.5008L33.3968 37.6948L33.4428 37.9538L33.2347 37.9982L33.1457 38.1427L33.0275 38.1025L33.1635 37.9404L33.0757 37.7041L33.2001 37.5947L33.1301 37.2242L32.8759 37.2985L32.8696 37.444L32.2577 37.5792L32.3895 37.7072L32.0526 37.7319L32.2807 38.3687L32.1269 38.731L32.5234 39.0551L32.1206 39.5504L32.3173 39.795L32.2252 40.019L31.5003 40.18L31.4386 40.4102L31.5349 40.8694L31.2357 40.9541L31.2681 41.1326L30.8319 41.1801L30.8529 41.3834L30.6761 41.3597L30.5809 41.4556L30.4627 41.7054L30.5914 41.7075L30.6928 42.1327L30.493 42.1791L30.5736 42.529L30.2849 42.5992L30.2671 42.3845L29.8434 42.304L29.6248 42.5032L29.5098 42.7014L29.7472 42.7984L29.7566 43.0399L29.9784 43.4114L30.7462 43.7768L31.2964 43.8955L31.5568 43.8088L31.4135 43.6096L31.5861 43.5249L31.5757 43.3505L32.0861 43.623L32.174 43.3691L33.1437 42.8613L33.8068 42.8097L34.4125 43.0977L34.6583 43.4744L34.6865 43.9491L34.8236 43.9584L34.9229 43.8779L35.0056 42.7127L34.6939 42.753L34.6384 42.6363L34.584 42.7684L34.4386 42.6281L34.539 42.4588L36.607 40.7208L37.5369 39.6382L38.2503 38.4028L38.4951 38.1437L38.5736 37.8032L38.4187 37.4688L38.4993 37.2892L40.0097 36.8722L40.0101 36.8713L40.6218 37.0075L40.6804 36.8939L41.1009 36.8784L41.3299 37.0095L41.5506 36.7752L42.196 36.9631L42.5057 36.8392L42.5862 36.7102L42.8582 36.7319L43.2201 36.5791L43.1207 36.2768L43.6939 36.1395L43.672 35.962L43.8017 35.8969L43.7149 35.7483L44.1511 36.0218L44.2462 36.0125L44.2201 35.835L44.5632 35.7793L44.5636 35.7816L44.2218 35.8371L44.2479 36.0146L44.1527 36.0239L43.7165 35.7504L43.8034 35.899L43.6737 35.964L43.6956 36.1416L43.1224 36.2788L43.2218 36.5812L42.8598 36.734L43.1067 36.9393L43.2803 36.9507L43.4059 37.2283L43.7887 37.0591L43.9624 37.1468L44.0272 37.4884L43.8975 37.4967L44.0073 37.5173L43.9341 37.5761L44.0565 37.6556L44.3536 37.54L44.4268 37.5947L44.1402 37.7093L42.4111 37.4347L42.2322 37.6257L42.7532 37.8259L42.9655 37.7619L43.135 38.0849L42.7783 38.3058L42.1747 38.4142L42.0586 38.5452L42.137 38.7032L42.4875 38.6794L42.5555 38.5391L42.7134 38.5731L42.8232 38.7486L43.1873 38.7816L43.2364 38.9147L43.6015 39.1542L43.7615 39.1149V39.3007L43.6391 39.3503L44.6737 39.6692L44.8546 39.7104L45.0534 39.5433L45.637 39.4225L46.5042 39.4886L46.569 39.2512L46.909 39.4132L47.2531 38.9447L47.1653 39.4917L47.2312 39.373L47.4655 39.3699L47.5481 39.4308L47.4592 39.6423L47.5481 39.6568L47.6475 39.4772L47.9571 39.889L48.0868 39.793L48.2887 39.8869L48.2207 39.6568L48.4467 39.6558L48.3619 39.4411L48.5167 39.2388L48.6347 39.3583L48.6341 39.3585L48.7303 39.6186L48.6309 39.7703L48.6403 40.3039L49.0954 40.2822L49.1466 40.3947L48.8621 40.501L48.8726 40.8261L48.6278 40.5846L48.3778 40.8591L48.1686 40.7642L48.0389 40.9159L47.9552 40.8632L47.6947 41.113L47.3025 41.2802L47.0933 41.1708L46.9468 41.4412L46.1414 41.8272L45.8286 42.0832L45.9071 42.1471L45.8401 42.2596L45.7136 42.2163L44.9981 42.6198L44.6152 43.0419L44.7366 43.1493L44.6665 43.2876L45.2219 43.4486L45.5985 43.1957L46.1278 43.2143L47.3757 44.2722L47.8286 44.0286L48.0525 44.1339L48.452 44.5828L48.5974 45.0173L48.6048 45.651L48.4186 45.7914L48.4029 45.9369L48.4045 45.9373L48.3951 46.6098L48.2675 46.8142L48.5479 46.905L47.9935 46.9525L47.7979 47.0526L48.1838 47.4644L48.6378 47.5098L48.7581 47.8091L48.9558 47.8307L49.0667 48L49.5711 47.9155L49.8935 47.9742L50.45 47.8039L50.5922 47.485L50.8841 47.4251L51.0828 47.1929L51.2292 47.2167L51.2355 47.0474L51.6194 46.423L52.1581 46.1123L52.5849 45.9266L53.1696 45.9049L53.4217 45.7872L53.6497 45.8399L53.8297 46.0205L53.9981 45.8688L54.1037 45.5107L54.3778 45.4054L54.4583 45.1732L54.8966 45.2537L54.8045 45.0565L55.0409 44.9368L54.9133 44.8739L54.906 44.7479L55.3056 44.4228L55.6079 44.3599L55.9824 44.4744L56.2794 44.6674L56.5117 45.0101L57.1978 44.7882L57.8955 44.9017L58.0273 44.7799L58.4301 44.7479L58.724 44.5539L58.5368 43.9729L58.6633 43.7087L58.5901 43.6116L58.8736 43.4413L58.7449 43.3578L58.7679 43.2473L59.2282 43.2814L59.3547 43.0853L59.1863 42.8355L59.0388 42.9098L58.7658 42.7468L58.5357 42.7922L58.088 42.6209L57.3788 42.7819L57.2753 43.0739L56.9866 43.172L56.6089 42.9233L56.5305 42.7839L56.6267 42.6941L56.5441 42.658L56.1874 43.0605L56.223 43.1617L56.0849 43.3516L55.3746 43.6003L54.9719 43.3557L54.6163 42.9738L53.7805 41.8324L53.3884 41.0793L53.3891 41.079L53.0533 40.1749L52.9205 39.3451L52.818 39.3472L52.7856 39.6702L52.6893 39.502L52.3713 39.5711L52.5073 39.6248L52.5 39.7848L52.6799 39.9901L52.7364 39.7827L52.8682 39.8405L52.9655 40.2533L52.8975 40.8726L53.0073 40.9293L53.1726 40.7353L53.3312 41.1081L53.3297 41.1089L53.5566 41.629L54.6173 43.0812L55.0117 43.5198L55.1759 43.5394L55.1633 43.7179L54.8642 43.7427L54.7962 43.8666L54.7156 43.7499L54.7826 43.6044L53.8506 43.2298L53.6393 42.8335L53.929 42.6002L53.8453 42.2359L53.632 41.8303L53.4039 41.7044L53.4228 41.5991L53.1738 41.6817L53.1027 41.4701L52.9594 41.563L52.9102 41.4391L53.11 41.2792L52.4625 41.5042L52.383 41.4309L52.7753 41.0707L52.6675 40.921L52.3328 41.0366L52.3893 40.7569L52.6027 40.6434L52.6884 40.7126L52.6717 40.5516L52.3338 40.693L51.9405 41.0635L51.6822 41.1171L51.6372 41.017L51.814 41.0067L51.9646 40.7219L52.2271 40.599L52.2659 40.2822L51.9698 40.0933L52.0681 40.4525L51.8966 40.4205L51.7198 40.6682L51.7282 40.4091L51.4447 40.1821L51.2564 39.8456L51.111 39.8972L51.1884 39.955L51.1393 40.0933L50.997 40.0169L50.9573 39.7796L50.8537 40.0634L50.7638 39.7992L50.3956 39.6877L50.3694 39.7878L50.5828 39.9633L50.6613 39.9179L50.7784 40.2646L50.5336 40.3431L50.36 40.1274L50.5023 40.1903L50.6602 40.0283L50.3265 39.8064L50.2889 39.6599L50.0755 39.5216L49.8046 39.5608L49.7617 39.6217L49.9981 39.7197L49.8098 39.7517L49.3652 39.5081L49.5179 39.3286L49.4437 39.1572L49.3119 39.1459L49.3956 39.2801L49.2638 39.4276L48.7345 38.8775L48.7341 38.8776L48.7186 38.8177L49.0774 39.0241L49.0209 38.8136L49.204 38.7413L49.4257 38.9158L49.5701 38.8445L49.6245 38.9281L49.8065 38.9147L50.1559 39.4349L50.2249 39.2285L50.3086 39.405L50.4268 39.3265L50.5345 39.4597L50.5701 39.3307L50.7406 39.148L50.5335 38.7382L50.5084 38.7145L50.613 38.568L51.045 39.2419L51.0565 39.5133L51.2123 39.2068L51.0743 39.0623L51.0701 38.731L51.2395 39.0633L51.3431 39.0375L51.6872 39.3317L51.9017 39.2883L51.8431 39.1015L51.9299 39.0458L52.092 39.2078L52.0188 39.6031L51.9331 39.3843L51.7856 39.4431L51.7416 39.5856L51.6621 39.4029L51.5471 39.6041L51.5784 39.7703L51.5397 39.7992L51.4843 39.8797L51.7019 40.0304L51.705 40.2657L51.8148 40.0717L51.9299 40.1264L52.1485 39.8787L52.2793 39.5556L52.2238 39.1635L52.4247 39.1098L52.8766 39.2243L52.9487 39.0076L53.1726 38.827L53.6642 38.7238L53.8996 38.5215L53.7981 38.5308L53.7981 38.5305L53.8967 38.5215L54.2754 38.054L54.1049 37.541L54.2053 37.4832L54.1697 37.5813L54.2848 37.7227L54.4961 37.8403L54.4752 38.2418L54.6697 38.3553L54.8005 38.2284L54.2932 39.0953L53.6425 39.3286L53.4982 39.633L54.1666 39.3069L55.1331 37.829L55.6415 37.5864L56.1153 37.0807L56.6321 36.7835L57.1572 36.6648L57.7325 36.6493L57.8967 36.7453L57.9856 37.0343L57.4867 37.573L57.7785 37.4069L58.4072 36.4635L59.2471 36.1085L59.6111 36.0961L59.9427 36.3376L59.9978 36.4574L59.9165 36.6095L59.7199 36.8392L59.7921 36.8423L59.9165 36.6095L60.0149 36.4945L59.9978 36.4574L60.2879 35.9145L60.8465 35.5698L60.698 35.3376L61.1195 35.0744L60.9417 34.9381L61.063 34.7689L60.5683 34.5707L60.6624 34.514L60.6226 34.3168L60.1028 33.9536L60.4888 33.9422L60.359 33.3426L60.7555 33.4303L61.0473 33.2311L61.0003 33.0505L61.1028 33.0247L61.1045 33.0285L61.0087 33.0526L61.0558 33.2332L60.764 33.4324L60.3675 33.3446L60.4972 33.9443L60.1112 33.9556L60.6311 34.3189L60.6709 34.516L60.5767 34.5728L61.0715 34.771L60.9501 34.9402L61.128 35.0765L60.7064 35.3396L60.855 35.5718L61.4616 35.2313L61.7545 35.4315L61.6855 35.6544L62.5338 34.5625L63.4261 34.5377L63.789 34.4097L64.2744 34.5191L64.3884 34.4035L64.6457 34.6533L64.7503 34.6358L65.0077 34.2601L64.9909 33.7946L65.3424 33.6305L65.3623 33.4169L64.9564 33.4045L64.9491 33.3075L65.2357 32.9721L65.1719 32.1836L65.2482 32.1774L65.265 32.0143L65.4135 32.0122L65.4146 31.81L65.7859 31.7996L65.7995 31.6696L66.3549 31.6655L66.3968 31.5365L66.5317 31.5354L66.5244 31.3817L66.902 31.4539L66.9637 30.781L67.0997 30.7758L67.1248 30.5281L67.9649 30.4902L68.0027 30.5859L68.2182 30.6365L68.554 30.5044L69.0665 30.4837L69.1659 30.6953L69.3877 30.5364L69.6324 30.7242L69.9076 30.6551L70.3103 30.717L70.4023 30.4972L70.5121 30.4734L70.6032 29.912L70.4515 29.6096L70.8343 29.6034L70.6649 29.4599L70.7747 29.397L70.9243 28.883L71.0205 28.8706L71.0404 28.6229L71.2768 28.6436L71.3197 28.4898L71.1983 28.1595L70.9546 28.399L70.895 28.2442L70.6858 28.1956L70.714 28.0708L71.0529 27.9779L71.0352 27.79L70.9714 27.8499L70.9128 27.7673L70.8814 27.4722L70.7046 27.3432L70.7726 27.1481L70.7119 26.8344L70.5111 26.7115L70.1429 26.7466L70.0456 26.6248L70.2601 26.2337L70.1994 26.0428L70.3165 25.8085L70.4232 25.8043L70.5383 25.406L71.1649 25.6609L71.5195 25.2501L71.3678 25.0014L71.2193 25.2615L70.964 25.1149L70.6994 25.0933L70.6366 25.1727L70.4452 24.9622L70.4975 24.8848L70.3636 24.6329L70.0592 24.5669L70.0864 24.3481L70.4295 24.3512L70.5655 24.2428L71.0257 24.2676L71.3521 23.6133L71.5132 23.571L71.7266 23.2913L71.9996 23.2634L71.8678 23.0033L71.9191 22.7174L71.5268 22.3799L71.3605 22.0868L71.395 21.7844L71.8385 21.5254L71.7287 21.2767L71.0885 21.3737L70.9745 21.5254L70.5529 21.5832L70.35 21.3726L70.0289 21.2756L69.8176 20.7699L69.8542 20.6357L69.281 20.4892L69.0404 20.6017L68.714 20.5088L68.3427 19.7967L67.94 20.1858L67.7894 20.1527L67.464 20.3003L67.3521 19.9071L66.9557 19.8555L66.6168 19.5593L66.6848 19.3075L66.599 19.2032L66.4546 19.4406L66.2318 19.323L66.0299 19.4293L65.894 19.3869L65.8218 19.2228L65.6931 19.1981L65.6356 19.2899L65.4086 19.164L65.3364 18.8038L65.2716 18.7233L65.122 18.808L64.7946 18.7656L64.9316 19.3157L64.6105 19.6264L64.599 19.518L64.2779 19.7379L64.4871 20.0227L64.487 20.0227L64.2777 19.7379L64.3165 19.5635L64.0424 19.3158L63.8907 18.9938L63.4441 18.743L63.2966 18.7708L62.897 18.2496L62.7976 18.0133L62.8771 17.5086L62.6564 17.5262L62.3374 17.2578L62.2673 17.1133L62.3165 16.7026L62.0832 16.847L61.8029 16.8233L61.6501 17.0266L61.1512 17.2723L60.1334 17.3889L59.5236 17.7439L59.3834 18.003L59.0738 17.8368L59.1575 17.6459L58.9493 17.6438L58.6135 17.4085L58.3824 17.6314L58.1334 17.6077L58.0748 17.3548L57.6501 16.8532L57.3165 16.7449L56.692 16.7975L56.6219 16.8976L56.4932 16.844L56.1585 17.263L55.8865 17.2826L55.9504 17.3404L55.8646 17.5024L55.8642 17.5022L55.9498 17.3404L55.886 17.2826L55.6768 17.2031L55.6088 16.75L55.226 16.5416L54.9289 16.0462L55.0419 15.9182L54.9457 15.6488L55.1727 15.5704L55.2605 15.6282L55.2877 15.5095L55.1465 15.2298L55.2657 14.9532L55.0042 14.8221L55.0189 14.5724L54.8913 14.4341L54.953 14.1905L54.6988 14.0295L54.7825 13.8489L54.6674 13.6342L54.8505 13.6776L54.9802 13.5754L54.9676 13.4474L54.6162 13.2874L54.4948 13.401L54.203 13.4288L54.0607 13.2616L54.1486 13.2297L54.1475 13.0346L53.9812 12.8148L54.067 12.4814L53.7929 12.436L53.681 12.5836L53.4624 12.4215L53.3149 12.5856L53.0471 12.6187L52.9404 12.7786L52.7898 12.6961L52.5419 12.7621L52.3724 12.6311L52.3432 12.3514L52.1329 12.3121L52.0534 12.4236L51.3641 12.2069L51.0984 12.3999L50.817 12.2492L50.9959 11.8549L51.1936 11.7404L50.7752 11.3988L51.0911 10.826L50.9132 10.7434L50.8348 10.4524L50.7658 10.506L50.7511 10.3698L50.6434 10.3842L50.5869 10.1231L50.2919 9.99515L51.0921 9.69585L51.4927 9.6814L51.5586 9.56168L51.4436 9.30883L51.4697 9.09932L51.0576 8.75357L50.8798 8.79382L50.9164 8.62663L50.7794 8.57296L50.6653 8.29637L50.5063 8.30153L50.4865 8.12401L50.3453 8.0786L50.3473 7.88457L50.2176 7.71738L50.3463 7.60075L50.407 7.32003L50.2061 7.17657L50.1842 6.98048L50.0346 6.95984L49.9969 6.82257L49.7877 6.71937L49.7155 6.3953L49.4363 6.30551L49.4227 6.07123L48.8756 6.0929L48.5178 6.35505L48.3892 6.28899L48.4321 6.41284L48.1591 6.34369L48.2794 6.096L48.0785 6.03717L48.0409 6.18269L47.9737 6.1623L47.9739 6.16203L47.8515 6.01755L47.5419 6.13107ZM49.0395 46.3243L49.0389 46.3239L48.7871 46.4214L48.7874 46.422L49.0395 46.3243ZM53.3432 37.4588L53.3423 37.4585L53.1569 37.4859L53.1569 37.4863L53.3432 37.4588ZM53.1509 37.1823L53.1509 37.1819L52.6797 37.2558L52.6799 37.2562L53.1509 37.1823ZM52.8465 35.568L52.8465 35.5677L52.6684 35.5829L52.6684 35.5832L52.8465 35.568ZM52.0873 34.8508L52.0871 34.8504L52.0104 34.8604L52.0105 34.8608L52.0873 34.8508ZM51.9574 34.4306L51.9574 34.4304L51.8441 34.4404L51.8441 34.4407L51.9574 34.4306ZM51.8269 33.2556L51.8277 33.2548L51.4699 33.324L51.4229 33.5086L51.4257 33.5088L51.4728 33.324L51.8269 33.2556ZM51.1693 33.4934L51.1666 33.4932L51.0883 33.5725L51.0889 33.5748L51.1693 33.4934ZM50.6996 32.6493L50.4961 32.5221L50.4959 32.5221L49.9949 32.6212L49.7543 32.325L48.7365 32.486L48.7062 32.3384L48.5484 32.3906L48.5481 32.3921L48.7061 32.3394L48.7364 32.487L49.7542 32.326L49.9948 32.6232L50.4958 32.5242L50.6996 32.6493ZM48.6148 32.0326L48.6151 32.0308L48.5053 31.8894L48.1476 31.9606L48.1477 31.9616L48.5052 31.8905L48.6148 32.0326ZM48.1788 32.1817L47.6183 32.2868L47.6187 32.2875L48.1789 32.1825L48.1788 32.1817ZM47.5681 32.4994L47.4698 32.1939L47.4697 32.1939L47.568 32.4994L47.5681 32.4994ZM47.2209 32.2432L47.2846 32.0133L46.7857 32.0009L46.7909 31.9018L46.3225 31.9266L46.3184 31.9307L46.787 31.9049L46.7818 32.005L46.787 32.2816L46.7887 32.281L46.7845 32.0009L47.2835 32.0133L47.2197 32.2434L47.2209 32.2432ZM46.9606 32.2203L46.9439 32.8255L46.7118 32.8604L46.7123 32.8627L46.9456 32.8276L46.9624 32.2197L46.9606 32.2203ZM46.6418 32.5757L46.6406 32.5706L46.5789 32.9927L46.5809 32.9927L46.6418 32.5757ZM46.892 32.9886L46.9356 33.2724L46.8216 33.323L46.8278 33.5356L46.8295 33.5369L46.8232 33.325L46.9372 33.2745L46.8933 32.9886L46.892 32.9886ZM47.096 33.7586L46.9241 33.7843L46.9178 33.935L46.6918 33.8524L46.5914 34.064L46.4753 33.9701L46.309 34.0041L46.1333 34.3323L46.2211 34.5718L46.2223 34.5725L46.1349 34.3344L46.3107 34.0062L46.477 33.9722L46.5931 34.0661L46.6935 33.8545L46.9195 33.9371L46.9257 33.7864L47.0983 33.7606L47.096 33.7586ZM46.7008 34.8625L46.5402 35.1105L46.286 34.9722L46.2149 35.0352L46.3927 35.3128L45.8885 35.4903L45.899 35.5801L45.9004 35.58L45.8902 35.4924L46.3944 35.3149L46.2165 35.0372L46.2877 34.9743L46.5418 35.1126L46.7029 34.8639L46.7008 34.8625ZM46.2796 35.6937L45.3909 35.8863L45.3912 35.8887L46.2814 35.6957L46.2796 35.6937ZM45.3626 35.6876L45.3624 35.6854L44.9889 35.7122L44.8017 35.5749L44.8059 35.8773L44.5885 35.905L44.5889 35.9073L44.8075 35.8794L44.8034 35.577L44.9906 35.7143L45.3626 35.6876ZM46.4478 31.7996L46.3459 31.9027L46.4439 31.8027L46.3592 31.2661L46.3634 31.265L46.4478 31.7996ZM46.7124 31.1742L46.707 31.1756L46.6343 30.9554L46.6605 30.6953L46.6653 30.6939L46.6392 30.9523L46.7124 31.1742ZM46.748 30.6695L46.7431 30.6709L46.7368 30.2402L46.4722 30.2588L46.469 29.879L46.4251 29.5621L45.9984 29.6553L45.9979 29.654L46.4289 29.5601L46.4728 29.8769L46.4739 29.8773L46.4771 30.2567L46.7417 30.2381L46.748 30.6695ZM46.5336 29.8996L46.5326 29.8992L46.6057 29.6292L46.8473 29.6013L46.8348 29.4692L46.8359 29.4693L46.8484 29.6013L46.6068 29.6292L46.5336 29.8996ZM47.0032 29.5931L46.998 29.5739L46.9634 29.4125L47.2605 29.332L47.2907 29.226L47.2919 29.2257L47.2616 29.332L46.9645 29.4125L47.0032 29.5931ZM47.1047 29.1988L47.1172 29.2698L47.1161 29.27L47.1036 29.1988L47.2657 29.1596L47.2166 28.9212L47.2178 28.9218L47.2668 29.1596L47.1047 29.1988ZM47.4907 29.2855L47.4905 29.2846L47.5806 29.1947L47.4958 29.0378L47.9864 28.9274L47.9791 28.8386L48.159 28.8056L48.2354 28.6167L48.3923 28.5724L48.2783 28.366L48.2856 28.0956L48.2867 28.0956L48.2794 28.366L48.3934 28.5724L48.2365 28.6167L48.1601 28.8056L47.9802 28.8386L47.9875 28.9274L47.4969 29.0378L47.5817 29.1947L47.4907 29.2855ZM48.089 27.9696L48.1423 28.1027L48.1412 28.1028L48.0879 27.9696L48.1182 27.7911L48.2218 27.7622L48.1329 26.9634L48.2626 26.8426L48.2637 26.8426L48.134 26.9634L48.2229 27.7622L48.1193 27.7911L48.089 27.9696ZM48.6633 26.8498L48.6622 26.8498L48.6235 26.6857L48.6247 26.6862L48.6633 26.8498ZM48.793 26.7508L48.7923 26.7505L49.0858 26.5877L49.3095 26.2143L49.3108 26.2141L49.0869 26.5877L48.793 26.7508ZM48.8787 26.0294L49.1171 26.2459L49.1161 26.2461L48.8776 26.0294L48.6496 25.9994L48.5335 25.8632L48.523 25.6382L48.5241 25.6383L48.5346 25.8632L48.6507 25.9994L48.8787 26.0294ZM48.7836 25.6588L48.7825 25.6588L48.8756 25.5329L48.8763 25.5335L48.7836 25.6588ZM49.0628 25.6774L49.0626 25.6772L49.3274 25.6052L49.3275 25.6055L49.0628 25.6774ZM49.4687 25.7693L49.4676 25.7692L49.6223 25.0772L49.6233 25.0776L49.4687 25.7693ZM51.0451 26.0263L51.0442 26.0232L51.1997 25.697L51.202 25.697L51.0451 26.0263ZM51.044 25.5071L51.0566 25.6939L51.0543 25.6939L51.0418 25.5071L51.2259 25.4916L51.1443 25.4441L51.2332 25.3255L51.07 25.1025L51.251 24.6484L51.1579 24.5597L51.4738 24.2676L51.4246 24.055L51.4271 24.056L51.476 24.2676L51.1601 24.5597L51.2532 24.6484L51.0723 25.1026L51.2354 25.3255L51.1465 25.4442L51.2281 25.4916L51.044 25.5071ZM51.952 24.2635L51.9501 24.2627L52.092 23.9631L52.7081 23.8021L52.7102 23.6442L53.0417 23.5534L53.0426 23.5538L52.7124 23.6442L52.7103 23.8022L52.0942 23.9632L51.952 24.2635ZM53.181 23.7681L53.1794 23.7672L53.365 23.5338L53.3663 23.535L53.181 23.7681ZM53.6047 23.764L53.6038 23.7631L53.4738 23.2407L53.6275 22.8361L53.6281 22.8364L53.4744 23.2407L53.6047 23.764ZM53.6068 23.766L53.6059 23.7652L53.7286 23.6329L53.7293 23.6339L53.6068 23.766ZM53.8421 23.796L53.8415 23.7951L53.9744 23.6793L53.9751 23.6801L53.8421 23.796ZM54.0461 23.7619L54.0458 23.7615L54.2234 23.7103L54.2236 23.7107L54.0461 23.7619ZM54.2135 23.9776L54.2137 23.9775L54.4472 23.9601L54.4473 23.9602L54.2135 23.9776ZM55.2553 24.7135L55.2545 24.7127L55.3363 24.6381L55.3375 24.6385L55.2553 24.7135ZM55.5335 24.7093L55.5329 24.7091L55.76 24.6474L55.76 24.6478L55.5335 24.7093ZM55.7699 24.7382L55.7699 24.7381L55.9545 24.7259L55.9546 24.726L55.7699 24.7382ZM56.0492 24.8322L56.0483 24.8311L56.0999 24.7537L56.1013 24.7541L56.0492 24.8322ZM56.3892 24.9426L56.3887 24.9416L56.669 24.6918L56.6702 24.6921L56.3892 24.9426ZM56.7783 24.7176L56.7769 24.7173L56.8646 24.5638L56.8655 24.565L56.7783 24.7176ZM58.135 27.0428L58.134 27.0421L58.2307 26.919L58.2316 26.9199L58.135 27.0428ZM58.3379 27.0294L58.3371 27.0285L58.6669 26.6022L58.6052 26.4948L58.7903 26.3493L58.7911 26.3499L58.6068 26.4948L58.6685 26.6022L58.3379 27.0294ZM59.1768 26.6723L59.1765 26.672L59.7024 26.5392L59.6156 26.1924L59.6899 26.1253L59.5236 25.76L59.6292 25.6L59.6343 25.6025L59.5296 25.76L59.696 26.1253L59.6217 26.1924L59.7085 26.5392L59.7315 26.695L59.7361 26.6951L59.7281 26.695L59.704 26.5392L59.1768 26.6723ZM59.9593 26.8416L59.9426 26.6971L59.946 26.6971L59.9627 26.8426L60.2775 26.9706L60.2953 27.0893L60.0997 27.1233L60.1144 27.2709L60.0307 27.2936L60.1029 27.6466L60.0014 27.6631L59.9522 28.0109L59.9845 28.1917L59.9812 28.1915L59.9499 28.0099L59.999 27.6621L60.1005 27.6456L60.0283 27.2926L60.112 27.2699L60.0973 27.1223L60.2919 27.0883L60.2741 26.9696L59.9593 26.8416ZM60.4007 28.8159L60.3088 28.2089L60.3121 28.2091L60.4041 28.817L60.1761 28.8706L60.2566 29.4125L60.107 29.6529L59.7326 29.5539L59.7325 29.5537L60.1036 29.6519L60.2532 29.4104L60.1727 28.8696L60.4007 28.8159ZM59.3955 29.3072L59.3993 29.3085L59.1384 29.4083L59.1603 30.0395L59.1559 30.04L59.135 29.4073L59.3955 29.3072ZM59.3505 30.2361L59.3089 30.0239L59.3131 30.0235L59.355 30.2371L59.0098 30.3155L59.1583 30.6117L59.2409 30.6458L59.1737 30.9314L59.1645 30.9327L59.2325 30.6437L59.153 30.6109L59.1538 30.6107L59.0053 30.3145L59.3505 30.2361ZM58.0231 30.6953L58.0631 30.7733L58.0599 30.7738L58.0196 30.6953L58.0231 30.6953ZM57.7678 30.5539L57.7782 30.6933L57.7743 30.6932L57.764 30.5545L57.7678 30.5539ZM57.3348 30.5209L57.3471 30.6132L57.3434 30.6138L57.3308 30.5199H57.4898L57.5337 30.3227L57.4657 30.1296L57.4687 30.1277L57.5377 30.3238L57.4927 30.5209H57.3348ZM57.3432 30.0018L57.3822 30.1802L57.3789 30.1824L57.3399 30.0029L57.3432 30.0018ZM57.3348 29.9626L57.2718 30.0228L57.2639 30.0255L57.3319 29.9605L57.2021 29.7334L57.3141 29.6911L57.2685 29.5124L57.272 29.5116L57.317 29.6922L57.2051 29.7345L57.3348 29.9626ZM56.9656 29.3299L56.9998 29.5716L56.9961 29.5724L56.9618 29.3308L56.9656 29.3299ZM56.4017 29.301L56.4309 29.4641L56.427 29.4651L56.398 29.3013L56.4017 29.301ZM56.0398 29.0936L56.175 29.3173L56.1718 29.3175L56.0373 29.0949L56.0398 29.0936ZM55.3819 29.3247L55.3951 29.4168L55.3915 29.4186L55.3779 29.3247L54.5763 29.0639L54.5785 29.0636L55.3819 29.3247ZM53.2469 29.1369L53.2459 29.3444L53.244 29.3443L53.245 29.1368L53.2469 29.1369ZM53.0785 29.9079L53.0777 29.9058L53.2074 29.8965L53.2077 29.8986L53.0785 29.9079ZM52.8965 30.5158L52.8963 30.5144L53.0494 30.4445L53.0498 30.4458L52.8965 30.5158ZM53.0859 30.5859L53.0856 30.5849L53.1833 30.5808L53.1833 30.5818L53.0859 30.5859ZM53.1633 31.0586L53.1663 30.9899L53.1635 31.0576L53.3894 31.0184L53.3892 31.0194L53.1633 31.0586ZM53.2103 31.521L53.2108 31.5209L53.2862 31.8295L53.2103 31.521ZM61.1989 33.2208L61.2012 33.226L61.3414 33.1558L61.4867 32.5737L61.2608 32.4911L61.2603 32.492L61.4783 32.5716L61.3329 33.1537L61.1989 33.2208ZM61.1702 32.639L60.8989 32.4478L60.7085 32.133L60.7041 32.1376L60.8904 32.4457L61.1687 32.6418L61.1702 32.639ZM60.6308 32.2042L60.4365 32.0226L60.4332 32.0252L60.6279 32.2073L60.6308 32.2042ZM60.2489 32.1621L60.0223 31.7759L60.0161 31.7776L60.244 32.166L60.2489 32.1621ZM59.7317 31.8494L59.7911 31.7171L59.781 31.7187L59.721 31.8523L59.7317 31.8494ZM59.6536 31.7354L59.6311 31.5953L59.8895 31.4591L59.874 31.4607L59.6226 31.5932L59.6457 31.7367L59.6536 31.7354ZM59.6136 31.4851L59.4658 30.8945L59.4582 30.8956L59.6059 31.4859L59.6136 31.4851ZM59.9983 25.7724L59.9925 25.7696L60.1104 25.6186L60.5068 25.6578L60.5072 25.6582L60.1175 25.6196L59.9983 25.7724ZM60.7399 25.8921L60.7359 25.8879L60.7757 25.8064L60.6073 25.6805L60.7056 25.535L60.8604 25.5567L60.9692 25.3616L60.9742 25.3645L60.8665 25.5587L60.7116 25.5371L60.6133 25.6815L60.7817 25.8075L60.7399 25.8921ZM61.3058 25.5567L61.2987 25.5525L61.3029 25.214L61.5717 24.9828L61.7809 24.9901L61.6679 24.7228L61.8374 24.5452L61.8427 24.5482L61.675 24.7238L61.787 24.9911L61.5788 24.9839L61.31 25.215L61.3058 25.5567ZM61.948 24.6041L61.9414 24.6003L61.988 24.3079L62.3206 24.2687L62.4148 24.1964L62.3771 24.0075L62.8708 23.8094L62.3991 23.5637L62.6041 23.3584L63.6156 23.5039L63.7056 23.3078L63.7057 23.3078L63.7062 23.3083L63.6238 23.5059L62.6123 23.3604L62.4072 23.5648L62.879 23.8104L62.3842 24.0096L62.4229 24.1974L62.3288 24.2707L61.9951 24.3089L61.948 24.6041ZM63.8424 23.7702L63.8421 23.7695L64.2935 23.8909L64.3197 23.7629L64.4421 23.7846L64.442 23.7851L64.3225 23.764L64.2964 23.8919L63.8424 23.7702ZM64.266 24.7052L64.349 24.7501L64.349 24.7506L64.2658 24.7056L64.266 24.7052ZM64.1834 24.858L64.1836 24.8577L64.5561 24.9519L64.9557 24.9199L64.9557 24.9211L64.5589 24.9529L64.1834 24.858ZM64.9543 25.4101L64.9543 25.4097L65.0749 25.4375L64.9543 25.4101ZM65.5129 27.5713L65.5111 27.5703L65.6889 27.4876L65.6893 27.4898L65.5129 27.5713ZM65.811 28.4052L65.8101 28.4047L66.1241 28.368L66.1246 28.3685L65.811 28.4052ZM67.1332 29.7407L67.1331 29.74L67.8427 29.7881L67.8427 29.7888L67.1332 29.7407ZM64.2381 20.0836L64.238 20.0836L64.1993 20.2126L64.3541 20.3623L64.3542 20.3623L64.1994 20.2126L64.2381 20.0836ZM64.0801 20.4583L64.08 20.4583L63.9964 20.6492L64.0769 20.7699L64.077 20.7699L63.9965 20.6492L64.0801 20.4583ZM64.2139 20.7441L64.169 20.8164L64.3238 21.0465L64.3239 21.0465L64.1691 20.8164L64.214 20.7441L64.2139 20.7441ZM64.1073 21.1053L64.1072 21.1054L64.1554 21.2096L64.1555 21.2096L64.1073 21.1053ZM63.9682 21.2994L63.9681 21.2994L63.988 21.5171L63.9881 21.5171L63.9682 21.2994ZM63.8124 21.5027L63.8123 21.5027L63.76 21.6193L63.8939 21.6885L63.894 21.6885L63.7601 21.6193L63.8124 21.5027ZM63.6335 21.7782L63.6334 21.7783L63.5936 21.9228L63.6177 22.1818L63.6178 22.1818L63.5938 21.9227L63.6335 21.7782ZM63.7328 22.1808L63.7997 22.4068L63.7516 22.9063L63.9775 22.9548L64.0131 23.0518L64.0132 23.0518L63.9776 22.9548L63.7517 22.9063L63.7998 22.4068L63.7329 22.1808L63.7328 22.1808ZM63.8071 23.1292L63.807 23.1292L63.8499 23.185L63.85 23.185L63.8071 23.1292ZM54.3912 22.9548L53.8614 22.959L53.8614 22.9589L54.3911 22.9548L54.3912 22.9548ZM54.5225 23.0942L54.5219 23.0935L54.5365 22.8671L54.8712 22.4532L54.7761 22.414L54.8221 22.1838L54.6579 22.1281L54.729 21.8814L54.7296 21.8816L54.6585 22.1281L54.8227 22.1839L54.7767 22.414L54.8719 22.4532L54.5372 22.8671L54.5225 23.0942ZM55.2464 21.9795L55.2457 21.9794L55.2572 21.8206L55.0595 21.7514L54.9748 21.6038L55.2614 21.5068L55.0742 20.9672L55.0748 20.9671L55.2621 21.5068L54.9755 21.6039L55.0602 21.7514L55.2579 21.8206L55.2464 21.9795ZM54.4001 20.8504L54.789 21.0093L54.7886 21.0093L54.3995 20.8504L54.4403 20.6337L54.2823 20.5552L54.3085 20.1156L54.0481 19.9649L54.0487 19.9649L54.3091 20.1156L54.283 20.5553L54.4409 20.6337L54.4001 20.8504ZM53.7338 19.8184L53.7851 19.9629L53.7844 19.9628L53.7333 19.8186L53.7338 19.8184ZM53.1324 19.5356L53.5735 19.8925L53.5731 19.8927L53.1317 19.5356L53.0355 19.2672L53.411 18.778L53.3074 18.6387L53.3325 18.3683L53.3327 18.3683L53.4415 18.3312L53.4028 18.1918L53.4033 18.192L53.442 18.3312L53.3332 18.3683L53.3081 18.6387L53.4117 18.778L53.0361 19.2673L53.1324 19.5356ZM53.6941 18.2971L53.6936 18.2969L53.7888 18.0824L54.0712 17.8781L54.0716 17.8781L53.7893 18.0824L53.6941 18.2971ZM54.4535 17.9204L54.453 17.9204L54.4833 17.7594L54.7061 17.7026L54.5911 17.6252L54.7082 17.4642L54.7085 17.4645L54.5916 17.6252L54.7066 17.7026L54.4838 17.7594L54.4535 17.9204ZM54.8886 17.5932L54.8881 17.5929L54.8819 17.4642L55.0419 17.3889L55.0421 17.389L54.8824 17.4642L54.8886 17.5932ZM55.396 17.618L55.3954 17.6176L55.3703 17.4776L55.6402 17.4095L55.6404 17.4096L55.3709 17.4776L55.396 17.618ZM52.6287 18.4106L52.5984 18.3239L52.5983 18.324L52.6286 18.4106L52.6287 18.4106ZM51.9342 18.4746L51.8505 18.2166L52.0252 17.9658L52.025 17.9658L51.8503 18.2166L51.934 18.4746L51.9342 18.4746ZM51.8337 17.8595L51.8076 17.6552L51.8074 17.6551L51.8336 17.8595L51.8337 17.8595ZM51.4572 17.5117L51.3693 17.199L50.9174 16.8305L50.8787 16.3702L50.7773 16.2856L50.7772 16.2856L50.8786 16.3702L50.9173 16.8305L51.3692 17.199L51.457 17.5117L51.4572 17.5117ZM50.3505 16.5752L50.3651 16.4456L50.365 16.4455L50.3503 16.5756L50.3505 16.5752ZM50.0899 16.4796L49.8369 16.2165L49.8368 16.2165L50.0899 16.4796L50.0899 16.4796ZM48.3138 16.5807L48.2302 16.4889L48.2301 16.489L48.3137 16.5807L48.3138 16.5807ZM48.1684 16.5961L48.0963 16.5158L48.0962 16.5158L48.1683 16.5962L48.1684 16.5961ZM47.9937 16.6034L47.9164 16.4776L47.9163 16.4776L47.9936 16.6035L47.9937 16.6034ZM47.7919 16.4827L47.7815 16.3599L47.7813 16.3599L47.7918 16.4827L47.7919 16.4827ZM47.589 16.3558L47.4404 16.1814L47.4404 16.1814L47.5888 16.3558L47.589 16.3558ZM45.7185 17.3082L45.2982 17.2526L45.3034 17.1814L45.3022 17.1818L45.297 17.2526L45.7185 17.3084L45.7185 17.3082ZM44.778 17.3226L44.6392 17.1876L44.6612 17.0266L44.316 16.9843L44.2187 16.8718L44.2176 16.8719L44.3148 16.9843L44.66 17.0266L44.638 17.1876L44.7771 17.3228L44.778 17.3226ZM43.4184 17.5447L43.2714 17.6417L43.2712 17.6429L43.4183 17.5457L43.4184 17.5447ZM44.0222 18.9912L44.0226 18.9917L44.0956 18.8878L44.0951 18.8874L44.0222 18.9912ZM44.5194 20.2929L44.5195 20.2931L44.706 20.2448L44.706 20.2446L44.5194 20.2929ZM45.5406 22.6801L44.8343 22.5327L44.7214 22.3934L44.7212 22.394L44.8336 22.5327L45.5407 22.6803L45.5406 22.6801ZM45.0833 23.219L45.4571 23.1974L45.457 23.1973L45.0832 23.219L45.0833 23.219ZM45.6187 23.3345L45.6189 23.3346L45.949 23.2542L45.9487 23.2541L45.6187 23.3345ZM45.9493 23.2543L45.6021 23.7062L46.0749 23.9363L46.0739 24.0529L45.8019 24.1696L45.8542 24.5039L46.0048 24.5679L45.9097 24.6639L45.5187 24.7464L45.5189 24.7465L45.9101 24.6639L46.0053 24.5679L45.8546 24.504L45.8023 24.1696L46.0743 24.0529L46.0753 23.9363L45.6025 23.7062L45.9496 23.2544L45.9493 23.2543ZM46.2095 23.3262L46.2103 23.3264L46.363 23.2607L46.3629 23.2603L46.2095 23.3262ZM47.3284 24.1509L47.3295 24.151L47.3191 23.6941L47.3179 23.6927L47.3284 24.1509ZM47.8776 24.9421L47.8787 24.9426L47.8986 24.7899L47.8974 24.7898L47.8776 24.9421ZM48.137 25.0061L48.1371 25.0066L48.3591 24.9274L48.3587 24.9271L48.137 25.0061ZM48.4837 25.0267L48.4843 25.0272L48.8112 24.6728L48.8106 24.6722L48.4837 25.0267ZM47.1716 13.9366L47.1716 13.9367L46.9551 13.9572L46.9551 13.9572L47.1716 13.9366ZM46.8766 13.6838L46.8769 13.6845L46.7375 13.8169L46.7368 13.8166L46.8766 13.6838ZM46.5953 11.5525L46.6294 11.4524L46.6308 11.4514L46.5963 11.5525L46.7677 11.6794L46.7668 11.6795L46.5953 11.5525ZM46.9227 11.6031L46.7714 11.5408L46.771 11.5401L46.9227 11.6027V11.6031ZM47.704 8.52239L47.5676 8.4823L47.5681 8.48212L47.7041 8.52209L47.704 8.52239ZM47.9687 7.97127L47.8351 7.83739L47.8358 7.83708L47.9695 7.97105L47.9687 7.97127ZM43.4324 17.3121L43.4515 17.2353L43.4325 17.3115L43.4324 17.3121ZM43.271 16.9432L43.271 16.943L43.0956 17.0234L43.0957 17.0235L43.271 16.9432ZM42.836 16.6505L42.8045 16.6396L42.8683 16.4972L42.8676 16.4972L42.8038 16.6396L42.836 16.6505ZM43.0747 16.5075L43.0754 16.5075L43.1402 16.2505L43.1393 16.2505L43.0747 16.5075ZM42.7501 16.233L42.6413 15.9574L42.6409 15.9571L42.7494 16.233L42.7501 16.233ZM42.5395 15.8682L42.4164 15.7603L42.416 15.7605L42.5395 15.8682ZM40.7565 16.3398L40.6873 16.2887L40.6872 16.2888L40.7565 16.3398ZM40.5405 16.4709L40.2459 16.0998L39.9718 15.9884L39.9739 15.879L40.181 15.8573L40.0848 15.6911L40.1486 15.4094L39.8139 15.0946L39.8212 14.9635L39.8195 14.9638L39.8122 15.0946L40.148 15.4104L40.0842 15.6911L40.1804 15.8573L39.9733 15.879L39.9712 15.9883L40.2452 16.0998L40.5402 16.4714L40.5405 16.4709ZM39.2025 15.0603L38.9886 14.9718L38.9881 14.9723L39.2013 15.0605L39.2025 15.0603ZM38.8495 15.1309L38.7773 15.0677L38.7888 15.043L38.4509 14.979L38.4322 14.7392L38.4293 14.7385L38.4482 14.98L38.786 15.044L38.7756 15.0688L38.8488 15.1317L38.8495 15.1309ZM38.5341 14.7611L38.5346 14.7612L38.5974 14.6446L38.5545 14.4041L38.2689 14.2534L38.1183 13.7209L37.9666 13.5754L37.965 13.5755L38.1166 13.7219L38.2672 14.2545L38.5528 14.4062L38.5957 14.6467L38.5341 14.7611ZM37.6152 13.5969L37.6413 13.3122L37.5576 13.1966L37.6716 13.1079L37.5754 12.79L37.5937 12.7828L37.5727 12.791L37.6689 13.1089L37.5549 13.1966L37.6386 13.3122L37.6134 13.597L37.6152 13.5969ZM37.7472 12.7226L37.749 12.7219L37.6246 12.4618L37.7018 12.4422L37.6229 12.4618L37.7472 12.7226ZM37.8099 12.4148L37.8118 12.4143L37.7562 12.2855L37.8099 12.4148ZM40.0778 36.704L40.0776 36.7047L39.902 36.2994L39.9023 36.299L40.0778 36.704ZM40.0025 36.1529L40.0023 36.1533L39.9302 35.8278L39.5171 35.4872L39.4386 35.1765L39.4389 35.1764L39.5172 35.4862L39.9304 35.8268L40.0025 36.1529ZM40.241 35.0197L40.2406 35.0197L40.1897 34.8638L40.1901 34.8638L40.241 35.0197ZM40.446 34.5501L40.4459 34.551L40.3277 34.0991L39.7702 34.1785L39.7671 34.0072L39.7672 34.0072L39.7703 34.1775L40.3278 34.0981L40.446 34.5501ZM39.9879 33.6119L39.9878 33.613L39.447 33.7502L39.334 33.6057L39.3343 33.6049L39.4471 33.7492L39.9879 33.6119ZM39.3665 33.4943L39.3662 33.4953L39.0505 33.5583L38.9208 33.2703L38.9213 33.2701L39.0506 33.5573L39.3665 33.4943ZM39.0506 33.2043L39.05 33.2046L38.9564 33.0959L38.97 32.7945L38.8403 32.8152L38.8404 32.8142L38.9701 32.7935L38.9565 33.0949L39.0506 33.2043ZM38.9209 32.1898L38.9208 32.1908L38.5736 32.1639L38.4846 32.0514L38.4852 32.0511L38.5737 32.1629L38.9209 32.1898ZM38.6301 31.6417L38.63 31.6427L38.3469 31.6974L38.3467 31.6964L38.6301 31.6417ZM38.2274 31.8905L38.385 31.8482L38.3853 31.8492L38.2273 31.8915L38.1865 31.7212L37.515 31.8037L37.4878 31.684L37.3309 31.7119L37.2179 31.0999L37.2182 31.0998L37.331 31.7109L37.4879 31.683L37.5151 31.8027L38.1866 31.7202L38.2274 31.8905ZM37.3822 30.8563L37.3821 30.8572L37.334 30.75L37.0077 30.7934L36.9261 30.1917L36.7106 29.9997L36.6457 29.752L36.6461 29.7518L36.7107 29.9987L36.9262 30.1906L37.0078 30.7923L37.3341 30.749L37.3822 30.8563ZM36.7525 29.6963L36.7519 29.6966L36.5819 29.4744L36.5825 29.474L36.7525 29.6963ZM37.0977 29.2876L37.0946 29.2872L36.948 29.2184L36.9425 29.1946L36.9481 29.2174L37.0977 29.2876ZM37.1427 28.8975L37.0151 28.9867L37.1434 28.8964L37.6104 28.9975L37.6103 28.9976L37.1427 28.8975ZM37.7944 29.01L37.6933 28.8958L37.6936 28.8954L37.7961 29.0099L37.7944 29.01ZM38.6207 28.8211L38.3782 28.7913L38.3787 28.7912L38.6214 28.8211L38.6536 28.9411L38.6532 28.9418L38.6207 28.8211ZM38.8718 28.98L38.7309 28.8246L38.7312 28.8242L38.8735 28.979L39.0262 28.9862L39.1423 28.8541L39.3412 28.8408L39.3414 28.8417L39.1417 28.8551L39.0255 28.9873L38.8718 28.98ZM39.559 28.6075L39.3057 28.6579L39.3055 28.657L39.5597 28.6064L39.9582 28.6725L40.0136 28.8758L40.1549 28.9233L40.2112 29.2035L40.2096 29.204L40.1532 28.9233L40.013 28.8758L39.9575 28.6735L39.559 28.6075ZM40.5266 29.2236L40.5078 29.1085L40.5095 29.108L40.5291 29.2224L40.5266 29.2236ZM40.7724 29.2494L40.7309 29.1277L40.7333 29.1266L40.7749 29.2486L40.7724 29.2494ZM41.1437 29.3526L41.0989 29.1419L41.1015 29.141L41.1465 29.3526L41.0503 29.4754L41.1224 29.5456L41.3215 29.4586L41.3216 29.4589L41.1207 29.5466L41.0486 29.4754L41.1437 29.3526ZM41.3822 29.2938L41.2963 29.2564L41.2961 29.2546L41.3828 29.2923L41.3822 29.2938ZM41.6155 29.1121L41.4443 29.1439L41.4446 29.1431L41.6172 29.1111L41.6486 29.2122L41.8044 29.1916L41.84 29.3258L42.0963 29.2793L42.1444 29.589L42.1416 29.5904L42.0946 29.2814L41.8383 29.3268L41.8017 29.1926L41.6469 29.2133L41.6155 29.1121ZM41.9596 29.6839L41.9625 29.6824L42.0367 30.1029L42.362 30.0059L42.3975 30.2598L42.4833 30.2423L42.5074 30.5219L42.5044 30.5221L42.4806 30.2453L42.3948 30.2629L42.3592 30.009L42.0339 30.106L41.9596 29.6839ZM42.4094 30.5302L42.4128 30.53L42.4551 30.7325L42.4518 30.7332L42.4094 30.5302ZM42.308 30.7676L42.3103 30.767L42.341 30.9327L43.1109 30.7655L43.4122 31.1226L43.7249 31.0578L43.7243 31.0627L43.4094 31.1278L43.1092 30.7696L42.3383 30.9368L42.308 30.7676ZM43.9806 30.7263L43.7611 30.7804L43.7615 30.7769L43.9833 30.7222L44.2092 30.9007L45.2351 30.7513L45.2337 30.7552L44.2065 30.9048L43.9806 30.7263ZM45.5496 30.1752L45.2292 30.2333L45.2281 30.2309L45.5488 30.1727L45.5496 30.1752ZM46.0726 29.8996L45.3675 29.9171L45.3672 29.9141L46.0716 29.8966L46.0726 29.8996ZM45.3139 24.6466L45.3134 24.6464L45.3228 24.7867L44.9822 24.8259L44.9823 24.826L45.3233 24.7867L45.3139 24.6466ZM44.8317 24.7406L44.8312 24.7403L44.8605 24.8817L44.7678 24.8858L44.8609 24.8817L44.8317 24.7406ZM44.4905 24.2875L44.4902 24.2872L44.417 24.408L44.4174 24.408L44.4905 24.2875ZM35.7982 28.6139L35.7982 28.6137L35.7418 28.6837L35.742 28.6838L35.7982 28.6139ZM35.5902 28.6034L35.59 28.6033L35.4426 28.8508L35.4428 28.851L35.5902 28.6034ZM35.7224 27.3493L36.007 27.3019L36.007 27.3019L35.7224 27.3492L35.7224 27.3493ZM36.2362 27.4565L36.2365 27.4567L36.4163 27.1782L36.416 27.178L36.2362 27.4565ZM36.6556 27.2955L36.6559 27.2957L36.7438 27.177L37.2124 27.0501L37.2689 26.8117L37.2685 26.8116L37.212 27.0501L36.7434 27.177L36.6556 27.2955ZM37.8385 26.8478L37.839 26.8478L37.8588 26.6496L37.7166 26.5309L37.9509 26.3441L37.9959 26.1697L37.8745 26.0428L37.8741 26.0428L37.9954 26.1697L37.9505 26.3441L37.7162 26.5309L37.8584 26.6496L37.8385 26.8478ZM37.9923 26.049L37.9927 26.049L38.0921 25.8818L38.297 25.7951L38.2967 25.7951L38.0917 25.8818L37.9923 26.049ZM38.6827 25.8518L38.6831 25.8518L38.7123 25.7839L38.712 25.7837L38.6827 25.8518ZM38.9632 25.9044L38.9634 25.9045L39.2059 25.7756L39.2057 25.7755L38.9632 25.9044ZM39.7895 26.0024L39.7898 26.0025L40.1505 25.7849L40.1503 25.7847L39.7895 26.0024ZM40.3095 25.893L40.3097 25.8931L40.4746 25.8457L40.4745 25.8456L40.3095 25.893ZM40.545 26.0056L40.545 26.0056L40.7281 25.9974L41.3651 25.4617L41.4427 25.0309L41.4431 25.0262L41.3647 25.4617L40.7277 25.9973L40.545 26.0056ZM41.431 25.1631L41.431 25.1634L41.5784 25.0655L41.5781 25.0654L41.431 25.1631ZM41.8093 25.1087L41.8097 25.1087L41.863 24.9271L41.8626 24.9271L41.8093 25.1087ZM42.029 24.9498L42.0293 24.9498L42.231 24.8302L42.2308 24.8301L42.029 24.9498ZM42.6235 25.1828L42.6235 25.1831L43.0155 24.9221L43.0153 24.9219L42.6235 25.1828ZM43.2687 25.0756L43.2689 25.0757L43.4321 25.0262L43.3954 24.7465L43.5482 24.7021L43.5774 24.5733L43.577 24.5731L43.5477 24.7021L43.395 24.7465L43.4316 25.0262L43.2687 25.0756ZM43.689 24.6338L43.6894 24.634L43.7427 24.2521L43.9268 24.1139L43.9264 24.1138L43.7423 24.2521L43.689 24.6338ZM32.0453 29.3237L32.0429 29.3252L32.1063 29.0048L32.1084 29.0051L32.0453 29.3237ZM32.4407 29.174L32.4371 29.1763L32.5425 28.8087L32.545 28.8105L32.4407 29.174ZM32.8244 29.0636L32.8498 29.0397L32.8501 29.0399L32.8244 29.0636ZM33.0202 29.1957L33.2176 29.1372L33.2183 29.139L33.0213 29.1974L33.0202 29.1957ZM33.6185 29.3433L33.6177 29.3433L33.6932 29.2215L33.6934 29.2215L33.6185 29.3433ZM34.3204 29.3041L34.3187 29.3039L34.4306 29.1297L34.4315 29.1302L34.3204 29.3041ZM34.6562 29.2504L34.652 29.2481L34.6241 28.8056L34.6281 28.8049L34.6562 29.2504ZM43.1218 18.1753L42.9001 18.1031L42.8991 18.1054L43.1199 18.1774L43.1218 18.1753ZM42.7965 18.3721L42.6961 18.3435L42.6984 18.3468L42.7956 18.3745L42.7965 18.3721ZM42.8223 18.5244L42.6051 18.6439L42.605 18.6449L42.8228 18.5252L42.8223 18.5244ZM42.8536 18.9705L42.5695 19.0949L42.5695 19.0961L42.8553 18.971L42.8536 18.9705ZM42.5728 19.5099L42.5287 19.3983L42.2724 19.3808L41.9137 20.0083L41.5632 19.9773L41.5465 19.6997L41.467 19.6945L41.1584 20.0402L40.8844 19.7327L40.9408 19.3013L40.4597 19.2487L40.442 19.3066L40.4588 19.2518L40.94 19.3034L40.8835 19.7358L41.1576 20.0433L41.4662 19.6966L41.5457 19.7017L41.5624 19.9794L41.9128 20.0103L42.2716 19.3828L42.5268 19.4004L42.5728 19.517L42.5728 19.5099ZM40.6144 19.4653L40.5737 19.5356L40.5739 19.5358L40.6147 19.4654L40.6144 19.4653ZM40.7111 19.7355L40.1218 19.999L40.1214 20.0008L40.712 19.7368L40.7111 19.7355ZM40.1572 20.8585L39.8603 21.3303L39.8604 21.3309L40.1576 20.8587L40.1572 20.8585ZM39.9197 21.5884L39.7756 21.5945L39.7749 21.5976L39.9201 21.5904L39.9197 21.5884ZM39.7074 21.9064L39.5203 22.0394L39.5208 22.0416L39.7067 21.9093L39.7074 21.9064ZM39.5341 22.125L39.4816 22.0518L39.48 22.0552L39.5352 22.1312L39.5341 22.125ZM39.363 22.3026L39.0978 22.3418L39.0981 22.3437L39.3616 22.3056L39.363 22.3026ZM39.1344 22.531L39.0528 22.6483L38.4231 22.7948L37.9869 22.5926L37.6731 22.8144L37.512 22.6163L37.5104 22.6178L37.6712 22.8165L37.985 22.5946L38.4222 22.7969L39.0519 22.6504L39.1346 22.5317L39.1344 22.531ZM37.1586 23.3024L37.1187 23.2025L36.5047 23.0983L36.5335 22.899L36.5038 23.0983L37.1168 23.2035L37.1576 23.3057L37.1586 23.3024ZM36.5453 22.8175L36.5455 22.8165L36.3519 22.7845L36.2694 22.9863L36.3521 22.7856L36.5453 22.8175ZM36.2137 23.1215L36.0988 22.8392L35.9377 22.7938L35.6511 22.8991L35.6511 22.8994L35.9369 22.7948L36.098 22.8403L36.213 23.123L36.2137 23.1215ZM35.6785 23.2106L35.3938 23.5028L35.3938 23.503L35.6785 23.2108L35.6785 23.2106ZM35.4235 23.5804L35.0047 23.6143L34.8698 23.4668L34.8678 23.4688L35.0028 23.6164L35.4243 23.5823L35.4235 23.5804ZM34.9702 23.3666L34.9722 23.3645L34.8969 23.348L34.8174 23.1736L34.7337 23.2975L34.466 23.1612L34.4921 22.9362L34.2066 22.8464L34.0701 22.5649L34.0687 22.5668L34.2057 22.8495L34.4913 22.9393L34.4651 23.1643L34.7329 23.3006L34.8176 23.1767L34.8971 23.3501L34.8966 23.3502L34.9702 23.3666ZM34.7318 24.1083L34.6053 24.0674L34.6052 24.0677L34.7319 24.1087L34.7318 24.1083ZM34.523 24.2903L34.4787 24.2201L34.4783 24.2211L34.5226 24.2913L34.523 24.2903ZM34.5695 24.5077L34.5697 24.5081L34.7184 24.4465L34.7183 24.4461L34.5695 24.5077ZM35.9065 27.1058L35.8093 27.1027L35.8093 27.1027L35.9065 27.1058L35.9065 27.1058ZM33.2434 12.2481L33.2433 12.2481L33.3396 12.7188L33.4222 13.0108L33.4228 13.0099L33.3394 12.7177L33.2434 12.2481ZM33.5305 12.8369L34.0948 13.3813L33.9327 13.628L33.9776 13.8373L33.9785 13.8375L33.9346 13.628L34.0957 13.3813L33.5308 12.8364L33.5305 12.8369ZM33.7568 13.7964L33.7559 13.7962L33.7507 13.9965L34.1094 14.3855L34.0613 14.6209L34.235 14.7488L34.2358 14.7488L34.0622 14.6198L34.1103 14.3855L33.7515 13.9965L33.7568 13.7964ZM34.0444 14.7457L34.0425 14.7457L34.1 14.9604L34.3197 14.9779L34.4117 15.2091L33.873 15.8119L34.0812 16.0627L33.9264 16.3867L34.0854 16.4652L34.1 16.6206L34.1009 16.62L34.0863 16.4641L33.9273 16.3857L34.0821 16.0627L33.8739 15.8119L34.4126 15.2091L34.3216 14.978L34.1009 14.9604L34.0444 14.7457ZM33.909 16.6302L33.9076 16.6293L33.8835 16.7263L34.0624 16.8016L33.9051 16.8994L34.0653 16.8006L33.8854 16.7252L33.909 16.6302ZM33.8646 16.9246L33.8615 16.9265L33.917 17.0122L34.0237 16.9409L34.1135 16.9242L34.0266 16.9389L33.9199 17.0101L33.8646 16.9246ZM34.2693 16.8979L34.3814 17.0338L34.3856 17.1525L34.5509 17.1845L34.509 17.4054L34.7486 17.4322L34.7308 17.6748L34.7337 17.6737L34.7515 17.4301L34.512 17.4033L34.5538 17.1825L34.3886 17.1505L34.3844 17.0318L34.2892 16.8945L34.2693 16.8979ZM34.6526 17.7055L34.6492 17.7067L34.7778 17.9472L34.5801 18.2094L34.7486 18.3673L34.5937 18.6284L34.7601 18.8203L34.691 19.0216L34.8992 19.4932L34.6753 19.6666L34.759 19.712L34.6053 19.9262L34.6061 19.9257L34.7609 19.71L34.6783 19.6646L34.9022 19.4912L34.694 19.0195L34.763 18.8183L34.5967 18.6263L34.7515 18.3652L34.5831 18.2073L34.7808 17.9452L34.6526 17.7055ZM34.0944 20.0871L34.0938 20.0867L34.0059 20.258L34.0068 20.258L34.0944 20.0871ZM33.8459 20.2489L33.8427 20.2487L33.9295 20.4809L33.8469 20.6657L33.8783 20.7493L34.0446 20.7513L34.0812 21.0897L34.0823 21.0899L34.1822 21.1597L34.1835 21.1569L34.0831 21.0878L34.0465 20.7482L33.8802 20.7462L33.8488 20.6626L33.9325 20.4778L33.8459 20.2489ZM34.0709 21.3838L34.0697 21.3861L34.2162 21.7813L34.3695 21.8585L34.3708 21.8567L34.216 21.7783L34.0709 21.3838ZM34.2482 22.0328L34.2465 22.0352L34.3982 22.1552L34.4001 22.1529L34.2482 22.0328ZM27.1168 23.9115L27.1152 23.9115L27.1058 23.8135L27.1075 23.8146L27.1168 23.9115ZM27.2643 23.9157L27.263 23.9148L27.3223 23.7278L27.4834 23.67L27.4842 23.6703L27.3239 23.7278L27.2643 23.9157ZM27.8354 23.8145L27.8341 23.814L27.9709 23.5204L27.9717 23.522L27.8354 23.8145ZM28.0237 23.6205L28.0233 23.6196L28.1016 23.5575L28.1025 23.5581L28.0237 23.6205ZM28.2423 23.6484L28.2416 23.6479L28.3945 23.5668L28.247 23.3016L28.2575 22.8196L28.0985 22.6638L28.223 22.2747L27.8694 22.22L27.8903 22.0951L27.9887 21.9671L27.8244 21.9217L27.8255 21.7421L28.0148 21.7349L28.0253 21.6007L27.8966 21.481L28.087 21.2261L27.9165 20.836L28.0828 20.8133L28.1663 20.567L28.167 20.5666L28.6011 20.3932L28.6019 20.3933L28.1681 20.5666L28.0844 20.8133L27.9181 20.836L28.0886 21.2261L27.8982 21.481L28.0269 21.6007L28.0164 21.7349L27.8271 21.7421L27.826 21.9217L27.9902 21.9671L27.8919 22.0951L27.871 22.22L28.2246 22.2747L28.1001 22.6638L28.2591 22.8196L28.2486 23.3016L28.3961 23.5668L28.2423 23.6484ZM29.0101 20.4386L29.0094 20.4386L29.553 20.3519L29.6293 20.2074L29.6302 20.2078L29.5541 20.3519L29.0101 20.4386ZM30.0948 20.386L30.094 20.3857L30.2517 20.1558L30.2526 20.1562L30.0948 20.386ZM30.4704 20.2353L30.4698 20.2351L30.622 20.1765L30.6222 20.1768L30.4704 20.2353ZM30.7748 20.4139L30.7743 20.4131L30.9578 20.2054L30.9587 20.2056L30.7748 20.4139ZM31.3511 20.29L31.3501 20.2898L31.4222 20.0423L31.7433 19.9484L31.8438 19.7977L31.8444 19.7983L31.7444 19.9484L31.4233 20.0423L31.3511 20.29ZM32.7214 21.4418L32.7207 21.4417L33.1534 21.3396L33.1537 21.3398L32.7214 21.4418ZM33.2674 21.4088L33.2664 21.4081L33.282 21.2024L33.2831 21.2027L33.2674 21.4088ZM33.5038 21.2767L33.5029 21.2764L33.554 21.1982L33.5548 21.1986L33.5038 21.2767ZM33.643 21.2426L33.6421 21.2422L33.736 21.0424L33.737 21.0425L33.643 21.2426ZM28.0088 20.6748L27.7025 20.4469L27.7925 20.2735L27.792 20.2735L27.7021 20.4469L28.0085 20.675L28.0088 20.6748ZM27.5456 20.3003L27.417 20.0722L27.4306 19.7853L27.1513 19.7213L27.2465 19.4767L27.1555 19.1373L27.155 19.1372L27.246 19.4767L27.1508 19.7213L27.4301 19.7853L27.4165 20.0722L27.5452 20.3003L27.5456 20.3003ZM27.3768 19.1712L27.3772 19.1712L27.486 18.9958L27.4855 18.9958L27.3768 19.1712ZM27.6246 18.9979L27.6251 18.9979L27.5802 18.778L27.3961 18.7264L27.4902 18.5726L27.4557 18.4106L27.6272 18.3353L27.5666 18.1464L27.5662 18.1467L27.6267 18.3353L27.4552 18.4106L27.4897 18.5726L27.3956 18.7264L27.5797 18.778L27.6246 18.9979ZM27.4253 18.2658L27.3312 17.7965L27.3308 17.7968L27.4249 18.2661L27.4253 18.2658ZM27.0538 17.9656L26.599 17.6221L26.7005 17.5736L26.576 17.4477L26.3375 17.3971L26.3459 17.1938L26.1032 17.0493L26.2768 16.5126L26.2763 16.5127L26.1027 17.0493L26.3454 17.1938L26.337 17.3971L26.5755 17.4477L26.7 17.5736L26.5985 17.6221L27.0535 17.9658L27.0538 17.9656ZM26.1638 16.5209L25.9065 16.1318L25.9061 16.1318L26.1634 16.5209L26.1638 16.5209ZM25.6818 16.1421L25.6285 15.9605L25.6279 15.9609L25.6811 16.1421L25.6818 16.1421ZM25.4646 16.1853L25.2812 16.1452L25.2811 16.1454L25.4646 16.1855L25.4646 16.1853ZM25.1499 16.3432L24.8659 16.2226L24.8658 16.2229L25.1498 16.3434L25.1499 16.3432ZM24.7044 16.4226L24.5992 16.3578L24.5989 16.3581L24.7042 16.4228L24.7044 16.4226ZM24.3021 16.6807L24.2812 16.5931L24.2813 16.5965L24.3014 16.6809L24.3021 16.6807ZM23.9709 17.2123L23.8074 17.1948L23.8073 17.1949L23.9709 17.2124L23.9709 17.2123ZM22.5084 25.6708L22.4122 25.633L22.4125 25.6335L22.5085 25.6712L22.5084 25.6708ZM22.6361 26.4295L22.6361 26.4298L22.7677 26.3909L22.768 26.3906L22.6361 26.4295ZM22.9505 26.9802L22.9509 26.9809L23.0312 26.8709L23.0305 26.8705L22.9505 26.9802ZM23.2446 27.0065L23.2448 27.0067L23.3957 26.9708L23.3956 26.9706L23.2446 27.0065ZM23.8006 27.4566L23.8012 27.4567L23.8953 27.403L23.8421 27.1673L23.8412 27.1667L23.8945 27.403L23.8006 27.4566ZM24.007 27.2811L24.0073 27.2812L24.2081 27.2358L24.0648 26.9912L24.0641 26.9913L24.2073 27.2358L24.007 27.2811ZM23.8922 27.0169L23.8734 26.919L24.0078 26.881L24.0075 26.8808L23.8726 26.919L23.8914 27.017L23.8922 27.0169ZM24.2533 27.0351L24.2541 27.0356L24.2583 26.7414L24.2575 26.7404L24.2533 27.0351ZM24.4364 26.9593L24.4372 26.9603L24.434 26.7002L24.5235 26.6242L24.5232 26.6238L24.4332 26.7002L24.4364 26.9593ZM24.7884 26.9878L24.7886 26.9881L25.1802 26.7398L25.1801 26.7394L24.7884 26.9878ZM25.5161 26.9034L25.5167 26.9035L25.7957 26.7705L25.7952 26.7704L25.5161 26.9034ZM26.084 26.862L26.0847 26.8622L26.1516 26.7683L26.0848 26.5603L26.0839 26.5598L26.1508 26.7683L26.084 26.862ZM20.6589 26.3493L20.3609 26.2915L20.4425 26.1088L20.2919 26.0087L20.2919 26.0087L20.4426 26.1088L20.361 26.2915L20.6591 26.3493L20.7417 26.504L20.7416 26.5041L20.6589 26.3493ZM21.1642 26.5598L20.9163 26.2813L20.9164 26.2812L21.1643 26.5598L21.1486 26.6909L21.3535 26.7456L21.3535 26.7456L21.1485 26.6909L21.1642 26.5598ZM21.751 26.6249L21.589 26.564L21.589 26.564L21.751 26.6248L21.751 26.6249ZM21.911 26.6455L21.8567 26.43L21.8568 26.4298L21.9112 26.6455L21.8338 26.7631L22.0116 27.0077L22.0114 27.0078L21.8336 26.7631L21.911 26.6455ZM22.2709 27.0573L22.09 26.5744L22.0901 26.5743L22.271 27.0573L22.2709 27.0573ZM22.7437 27.1595L22.6255 26.9964L22.6256 26.9964L22.7438 27.1595L22.9257 27.1657L22.7437 27.1595ZM16.3128 28.5373L16.3107 28.3443L15.8871 27.9954L15.793 27.7952L15.7929 27.7952L15.887 27.9954L16.3107 28.3443L16.3127 28.5373L16.3128 28.5373ZM15.2291 27.8995L15.09 27.6786L15.0262 27.0212L15.0261 27.0212L15.0899 27.6786L15.2291 27.8994L15.2291 27.8995ZM14.3139 27.369L14.2584 26.8757L14.2584 26.8757L14.3138 27.369L14.3139 27.369ZM14.0607 26.9148L13.8704 26.7229L13.8494 26.4835L13.8494 26.4834L13.8703 26.7229L14.0607 26.9148L14.0607 26.9148ZM13.5566 26.468L13.2679 26.1119L13.2678 26.1119L13.5565 26.468L13.5566 26.468ZM12.999 26.0025L13.1047 25.7073L13.0189 25.4937L13.0911 25.2698L13.2103 25.2151L13.045 25.0386L13.1361 24.8125L13.0628 24.7011L13.2699 24.4255L13.4279 24.378L13.5022 24.0529L13.7416 23.9023L13.7414 23.9023L13.5018 24.0529L13.4275 24.378L13.2696 24.4255L13.0625 24.7011L13.1357 24.8125L13.0447 25.0386L13.21 25.215L13.0907 25.2697L13.0186 25.4937L13.1043 25.7073L12.9987 26.0025L12.9989 26.0025L12.999 26.0025ZM12.3377 25.7797L12.3376 25.7796L12.208 25.8631L12.2082 25.8632L12.3377 25.7797ZM12.0657 25.7497L12.0656 25.7497L11.7698 25.8249L11.7699 25.825L12.0657 25.7497ZM11.4025 25.2812L11.4024 25.2811L11.0157 25.4358L11.0157 25.4359L11.4025 25.2812ZM14.2501 24.024L14.2498 24.024L14.4903 23.8207L14.4905 23.8209L14.2501 24.024ZM14.6612 23.9415L14.6609 23.9413L14.8062 23.7763L14.8065 23.7764L14.6612 23.9415ZM15.1789 23.8847L15.1786 23.8846L15.2047 23.797L15.4119 23.7939L15.8585 23.573L15.8588 23.5731L15.4122 23.7939L15.2051 23.797L15.1789 23.8847ZM16.1256 23.6339L16.1253 23.6338L16.187 23.3326L16.1873 23.3326L16.1256 23.6339ZM15.8798 23.0694L15.8254 23.3181L15.825 23.3181L15.8794 23.0694L15.8798 23.0694ZM15.6549 22.9507L15.6643 23.0487L15.6639 23.0487L15.6545 22.9507L15.6587 22.8743L15.6591 22.8743L15.6549 22.9507ZM15.9268 22.9001L15.9265 22.9001L15.9819 22.671L16.1315 22.5389L15.9662 22.4625L15.9024 22.2654L16.0447 22.1859L16.0185 21.9248L16.1744 21.8598L16.1388 21.6978L16.278 21.577L16.2782 21.5771L16.1392 21.6978L16.1748 21.8598L16.0189 21.9248L16.045 22.1859L15.9028 22.2654L15.9666 22.4625L16.1319 22.5389L15.9823 22.671L15.9268 22.9001ZM16.431 21.7607L16.431 21.7606L16.6221 21.704L16.6222 21.704L16.431 21.7607ZM17.1528 21.9093L17.1524 21.9093L17.1305 21.5089L17.916 21.3004L18.0918 21.1353L18.2089 20.6234L18.2092 20.6236L18.0922 21.1353L17.9164 21.3004L17.1309 21.5089L17.1528 21.9093L17.3516 22.4986L17.3515 22.4986L17.1528 21.9093ZM17.6402 22.6989L17.4802 22.4914L17.4802 22.4914L17.6403 22.6989L17.5263 22.8661L17.5911 23.1664L17.8913 23.314L17.6382 23.6989L17.794 23.8764L18.0775 23.9384L18.1058 24.1892L18.1057 24.1892L18.0775 23.9384L17.794 23.8765L17.6381 23.6989L17.8913 23.314L17.5911 23.1664L17.5262 22.8661L17.6402 22.6989ZM17.8421 24.1273L17.8421 24.1273L17.8003 24.2769L18.0189 24.5999L18.0189 24.5999L17.8003 24.2769L17.8421 24.1273ZM18.4561 24.6639L18.2009 24.506L18.2009 24.506L18.4562 24.6639L18.4561 24.6639ZM18.5231 24.7496L18.5429 24.5804L18.5429 24.5803L18.543 24.5803L18.5231 24.7496L18.6539 24.8538L18.6538 24.8538L18.5231 24.7496ZM18.5534 24.957L18.5535 24.957L18.6298 25.2553L18.6298 25.2553L18.5534 24.957ZM18.8724 25.3668L18.9634 24.923L18.9635 24.923L18.8725 25.3667L18.8725 25.3668L18.8724 25.3668ZM19.2877 25.4029L19.0042 25.2594L19.0043 25.2594L19.2878 25.4029L19.2877 25.4029ZM18.9906 25.5247L18.9907 25.5247L19.0336 25.7011L19.1298 25.7104L19.0335 25.7012L18.9906 25.5247ZM19.3892 25.5814L19.249 25.5154L19.2491 25.5154L19.3892 25.5814ZM19.7448 25.4524L19.7386 25.2625L19.6486 25.2574L19.7386 25.2625L19.7449 25.4524L20.4007 25.888L20.4007 25.888L19.7448 25.4524ZM18.3733 20.7615L18.3735 20.7617L18.5482 20.5852L18.4028 20.4376L18.4279 20.1342L18.4275 20.1342L18.4024 20.4376L18.5478 20.5852L18.3733 20.7615ZM19.1545 20.13L19.1549 20.13L19.1926 19.9876L19.452 19.9205L19.5022 19.5614L19.6371 19.517L19.5514 19.2796L19.3704 19.1733L19.4237 18.9473L19.6601 18.9081L19.7375 18.6821L19.8652 18.6408L19.7271 18.5045L19.8202 18.2972L19.8199 18.2971L19.7268 18.5045L19.8649 18.6408L19.7373 18.6821L19.6599 18.9081L19.4235 18.9473L19.3701 19.1733L18.8325 18.4942L18.9005 18.2207L18.731 18.0143L18.867 17.6779L18.5354 17.6366L18.5354 17.6364L18.3413 17.5581L18.3204 17.3424L17.9313 17.0875L17.9313 17.0879L18.3198 17.3424L18.3407 17.5581L18.5353 17.6366L18.8669 17.6779L18.7309 18.0143L18.9003 18.2207L18.8323 18.4942L19.37 19.1733L19.551 19.2796L19.6367 19.517L19.5018 19.5614L19.4516 19.9205L19.1922 19.9876L19.1545 20.13ZM17.9108 17.3237L17.6687 17.2444L17.6683 17.2445L17.9108 17.3239L17.9108 17.3237ZM17.1165 17.3248L17.1457 17.1484L16.9062 16.9688L16.7012 16.9513L16.7074 16.4879L16.7068 16.488L16.7006 16.9513L16.9056 16.9688L17.1451 17.1484L17.1158 17.3249L17.1165 17.3248ZM16.5526 16.5054L16.4616 16.1834L16.4611 16.1836L16.552 16.5054L16.5526 16.5054ZM16.1811 16.2442L16.0348 16.1432L15.9428 15.8841L15.9422 15.8843L16.0342 16.1432L16.1807 16.2443L16.1811 16.2442ZM15.709 16.0646L15.4616 16.0204L15.0903 15.5724L15.0897 15.5725L15.461 16.0204L15.7089 16.0647L15.709 16.0646ZM20.1005 18.3869L20.1003 18.3868L20.1777 18.2506L20.1779 18.2508L20.1005 18.3869ZM20.361 18.3724L20.3609 18.3724L20.7132 18.1815L20.7135 18.1815L20.361 18.3724ZM21.1706 18.1598L21.1703 18.1598L21.4298 17.7986L21.4299 17.7987L21.1706 18.1598ZM21.7145 17.9441L21.7144 17.944L21.8952 17.8017L21.8954 17.8018L21.7145 17.9441ZM22.2532 17.9503L22.2531 17.9502L22.4611 17.748L22.461 17.7484L22.2532 17.9503ZM20.1767 10.2417L20.0181 10.2057L20.0182 10.2058L20.1766 10.2418L20.1767 10.2417ZM20.0966 10.9291L20.0966 10.9292L20.2781 10.9096L20.2781 10.9095L20.0966 10.9291ZM20.6101 11.6309L20.6102 11.631L20.7053 11.6124L20.7116 11.4978L20.8262 11.4968L20.8262 11.4968L20.7111 11.4978L20.7049 11.6124L20.6101 11.6309ZM20.8946 11.6422L20.8947 11.6423L21.0783 11.5713L21.0783 11.5711L20.8946 11.6422ZM21.7509 14.7127L21.3549 14.6508L21.3549 14.6509L21.7509 14.7127L21.7509 14.7127ZM21.092 15.7949L20.879 15.5023L20.8785 15.5023L21.0919 15.7954L21.092 15.7949ZM20.6478 15.529L20.584 15.235L20.5835 15.235L20.6473 15.5291L20.6478 15.529ZM19.7857 15.5909L19.494 15.4476L19.4941 15.4478L19.7854 15.591L19.7857 15.5909ZM19.5583 15.8602L19.1489 15.7592L19.1489 15.7594L19.5584 15.8604L19.5583 15.8602ZM19.1844 16.0552L19.1844 16.0554L19.2593 16.0226L19.2593 16.0224L19.1844 16.0552ZM19.1892 16.2752L18.5798 16.1968L18.5799 16.1969L19.1892 16.2753L19.1892 16.2752ZM18.6704 16.6437L18.4438 16.6086L18.444 16.6087L18.6703 16.6437L18.6704 16.6437ZM18.6238 16.8737L18.6238 16.8739L18.6955 16.8544L18.6955 16.8543L18.6238 16.8737ZM18.8368 17.2245L18.7315 17.134L18.7312 17.1341L18.8367 17.2248L18.8368 17.2245ZM27.0887 11.3162L27.2791 11.4896L27.2789 11.4896L27.0885 11.3162L27.1042 11.2058L27.1044 11.2058L27.0887 11.3162ZM38.5183 16.3682L38.7429 16.3064L38.5172 16.3682L38.4837 16.4311L38.5047 16.7232L38.6793 16.879L38.6992 17.0658L38.5586 17.2528L38.5591 17.2526L38.7003 17.0658L38.6804 16.879L38.5047 16.7232L38.4848 16.4311L38.5183 16.3682ZM38.7484 16.3052H38.7473L38.7473 16.1597L38.4911 16.0338L38.2348 16.2639L37.7693 16.3578L37.4524 16.0234L36.9223 16.0029L36.921 16.0007L37.4534 16.0214L37.7704 16.3558L38.2358 16.2618L38.4921 16.0317L38.7484 16.1566V16.3052ZM36.9346 16.2722L37.0611 16.2312L37.0622 16.233L36.9335 16.2742L36.7724 16.4621L36.685 16.9386L36.6846 16.9389L36.7724 16.46L36.9346 16.2722ZM38.0068 18.0721L38.0067 18.072L38.0998 17.9699L38.0726 17.295L38.0737 17.2945L38.1009 17.9689L38.0068 18.0721ZM38.3572 17.3466L38.3567 17.3463L38.4505 17.3031L38.3572 17.3466ZM41.4262 37.3253L42.0506 37.2779L42.4094 37.4316L42.2306 37.6226L41.9366 37.6009L41.8665 37.831L41.4262 37.3253ZM45.9843 39.729L45.6193 39.8776L46.0031 39.9561L46.6799 39.9592L45.9843 39.729Z" fill="#F7D648" style=""></path>
  </g>
  <defs style="" fill="#F7D648">
    <filter id="filter0_d_7_232" x="0" y="0" width="79.9996" height="58" filterUnits="userSpaceOnUse" color-interpolation-filters="sRGB" style="" fill="#F7D648">
      <feFlood flood-opacity="0" result="BackgroundImageFix" style="" fill="#F7D648"></feFlood>
      <feColorMatrix in="SourceAlpha" type="matrix" values="0 0 0 0 0 0 0 0 0 0 0 0 0 0 0 0 0 0 127 0" result="hardAlpha" style="" fill="#F7D648"></feColorMatrix>
      <feOffset dy="2" style="" fill="#F7D648"></feOffset>
      <feGaussianBlur stdDeviation="4" style="" fill="#F7D648"></feGaussianBlur>
      <feComposite in2="hardAlpha" operator="out" style="" fill="#F7D648"></feComposite>
      <feColorMatrix type="matrix" values="0 0 0 0 0.00392157 0 0 0 0 0.0627451 0 0 0 0 0.2 0 0 0 0.32 0" style="" fill="#F7D648"></feColorMatrix>
      <feBlend mode="normal" in2="BackgroundImageFix" result="effect1_dropShadow_7_232" style="" fill="#F7D648"></feBlend>
      <feBlend mode="normal" in="SourceGraphic" in2="effect1_dropShadow_7_232" result="shape" style="" fill="#F7D648"></feBlend>
    </filter>
  </defs>
</svg>